<svg id="Layer_1" data-name="Layer 1" xmlns="http://www.w3.org/2000/svg" viewBox="0 0 10.81 7.76"><defs><style>.cls-1{fill:#f07e1f;}.cls-2{fill:#3c9a47;}</style></defs><title>Orange Chilli</title><path class="cls-1" d="M3.6,5.71a2.13,2.13,0,0,1,1.16-.1h.07l.11,0a1.23,1.23,0,0,1,.83.86q.08.28.18.56a4.31,4.31,0,0,0,.82,1.46A3.75,3.75,0,0,0,8.59,9.61a12.38,12.38,0,0,0,2.74.4l1.51.07-.11.05a16.21,16.21,0,0,1-3.14.94,8.06,8.06,0,0,1-2.77.08,5,5,0,0,1-3.92-3A1.91,1.91,0,0,1,3,6,4.32,4.32,0,0,1,3.6,5.71ZM9.19,10a7,7,0,0,1-1.84-.57A2.83,2.83,0,0,1,6,8.08c-.19-.41-.35-.83-.51-1.25a2,2,0,0,0-.39-.68A.7.7,0,0,0,4.29,6H4.4a.66.66,0,0,1,.67.47c.09.27.17.54.24.82a3.47,3.47,0,0,0,1.25,2A4,4,0,0,0,8,9.94a11.34,11.34,0,0,0,2.37.3l0,0Z" transform="translate(-2.03 -3.48)"/><path class="cls-2" d="M3,6a4.32,4.32,0,0,1,.55-.3,2.13,2.13,0,0,1,1.16-.1h.07A.89.89,0,0,0,4.2,5.2a.13.13,0,0,1-.11-.11,9.56,9.56,0,0,0-.27-.92,1,1,0,0,0-.64-.64A.85.85,0,0,0,2.11,4a.55.55,0,0,0-.06.4,1,1,0,0,1,.06-.12,2.68,2.68,0,0,1,.31-.42A.62.62,0,0,1,3.31,4a1.49,1.49,0,0,1,.24.61c0,.18,0,.37.06.55a.16.16,0,0,1-.1.17A.94.94,0,0,0,3,6Z" transform="translate(-2.03 -3.48)"/></svg>