<svg id="Layer_1" data-name="Layer 1" xmlns="http://www.w3.org/2000/svg" viewBox="0 0 13.44 10.95"><defs><style>.cls-1{fill:#00a651;}</style></defs><title>Vegan</title><path class="cls-1" d="M.72,2.09c.37.33.72.62,1,.94a7.86,7.86,0,0,1,1.34,2A12.46,12.46,0,0,0,4.71,7.56,5.54,5.54,0,0,0,6.34,8.93a2.78,2.78,0,0,0,2.18.19.18.18,0,0,1,.25.09,13.78,13.78,0,0,1,1.46,3.32.26.26,0,0,0,.28.23c.23,0,.45,0,.68.07a.23.23,0,0,0,.3-.18A6.59,6.59,0,0,1,13,10.16c.37-.38.79-.7,1.21-1.06a1.85,1.85,0,0,0-1-.48,1.58,1.58,0,0,0-1.35.46c-.31.29-.58.64-.86,1l-.16.21A12.28,12.28,0,0,0,4.15,3.67,10.62,10.62,0,0,1,10.42,8c.06-.42.14-.79.17-1.16A5.23,5.23,0,0,0,10.44,5,3.57,3.57,0,0,0,8.78,2.89a6.68,6.68,0,0,0-2.4-.81,16.35,16.35,0,0,0-4-.12Z" transform="translate(-0.72 -1.89)"/></svg>